<svg width="61" height="61" viewBox="0 0 61 61" fill="none" xmlns="http://www.w3.org/2000/svg">
<path d="M18.1166 39.0358V39.5358H18.6166H25.7366V59.5292C11.9221 57.0678 1.41667 44.9105 1.41667 30.3008C1.41667 13.9181 14.695 0.620117 30.9166 0.620117C47.1383 0.620117 60.4166 13.9181 60.4166 30.3008V30.302C60.4324 37.3689 57.9313 44.2084 53.3653 49.5858C48.9262 54.8137 42.8199 58.3247 36.0966 59.5287V39.5358H42.5866H43.0153L43.0808 39.1122L44.4308 30.3772L44.5198 29.8008H43.9366H36.0966V24.6382C36.0966 23.5215 36.372 22.4796 37.0251 21.7233C37.6663 20.9806 38.736 20.4394 40.4866 20.4394H44.2666H44.7666V19.9394V12.4996V12.0764L44.3491 12.0065L44.2666 12.4996C44.3491 12.0065 44.3491 12.0065 44.349 12.0065L44.3488 12.0064L44.3482 12.0063L44.346 12.006L44.338 12.0046L44.3074 11.9997C44.295 11.9976 44.2798 11.9952 44.262 11.9923C44.2416 11.9891 44.2178 11.9853 44.1907 11.9811C44.0889 11.9651 43.9406 11.9425 43.7526 11.9153C43.3767 11.8611 42.8419 11.7889 42.2041 11.7167C40.9307 11.5725 39.2377 11.4273 37.5766 11.4273C34.0408 11.4273 31.0666 12.4989 28.9761 14.5978C26.8853 16.6971 25.7366 19.7653 25.7366 23.6442V29.8008H18.6166H18.1166V30.3008V39.0358Z" fill="#FF9900" stroke="black"/>
</svg>
